# xmcd
#
# Track frame offsets:
#	150
#	42934
#	62736
#	96895
#	131931
#	150805
#	175201
#	191166
#	205426
#	239196
#	273414
#	292586
#
# Disc length: 4242 seconds
#
# Revision: 0
# Processed by: cddbd v1.5.1PL0 Copyright (c) Steve Scherf et al.
# Submitted via: dBpowerAMP V4.0
#
DISCID=b110900c
DTITLE=Ten years after - I'm going home
DYEAR=1996
DGENRE=
TTITLE0=I'm Going Home
TTITLE1=I'd Love To Change The World
TTITLE2=It's Getting Harder
TTITLE3=Love Like A Man
TTITLE4=Woodchoppers Ball
TTITLE5=Rock And Roll Music To The World
TTITLE6=Me And My Baby
TTITLE7=I Woke Up This Morning
TTITLE8=Stoned Woman
TTITLE9=Choo Choo Mama
TTITLE10=Slow Blues In C
TTITLE11=50 000 Miles Beneath My Brain
EXTD=
EXTT0=
EXTT1=
EXTT2=
EXTT3=
EXTT4=
EXTT5=
EXTT6=
EXTT7=
EXTT8=
EXTT9=
EXTT10=
EXTT11=
PLAYORDER=
